<?xml version="1.0" standalone="no"?><!DOCTYPE svg PUBLIC "-//W3C//DTD SVG 1.1//EN" "http://www.w3.org/Graphics/SVG/1.1/DTD/svg11.dtd"><svg t="1683774641511" class="icon" viewBox="0 0 1024 1024" version="1.1" xmlns="http://www.w3.org/2000/svg" p-id="23628" width="48" height="48" xmlns:xlink="http://www.w3.org/1999/xlink"><path d="M833.686 833.999H190.513c-52.101 0-94.488-42.388-94.488-94.488V284.487c0-52.101 42.387-94.488 94.488-94.488h643.172c52.101 0 94.488 42.387 94.488 94.488v455.024c0.001 52.1-42.387 94.488-94.487 94.488z m-643.173-580c-16.811 0-30.488 13.677-30.488 30.488v455.024c0 16.812 13.677 30.488 30.488 30.488h643.172c16.812 0 30.488-13.677 30.488-30.488V284.487c0-16.811-13.677-30.488-30.488-30.488H190.513z" fill="#7c60e0" p-id="23629"></path><path d="M383.751 520c-60.655 0-110.002-49.347-110.002-110.002s49.347-110.002 110.002-110.002 110.002 49.347 110.002 110.002c0 31.078-9.156 57.705-26.478 77.001C447.895 508.588 419.013 520 383.751 520z m0-180.004c-38.599 0-70.002 31.403-70.002 70.002S345.152 480 383.751 480c57.857 0 70.002-38.067 70.002-70.002 0-38.599-31.403-70.002-70.002-70.002z" fill="#7c60e0" p-id="23630"></path><path d="M206.251 686.35c-11.046 0-20-8.954-20-20 0-49.608 20.736-96.163 58.387-131.089 37.235-34.541 86.64-53.563 139.113-53.563 58.539 0 108.591 18.373 144.747 53.133C562.999 568 582 614.229 582 665c0 11.046-8.954 20-20 20s-20-8.954-20-20c0-85.713-63.595-143.302-158.249-143.302-86.846 0-157.5 64.891-157.5 144.651 0 11.047-8.954 20.001-20 20.001zM797 409H630c-11.046 0-20-8.954-20-20s8.954-20 20-20h167c11.046 0 20 8.954 20 20s-8.954 20-20 20zM799 514H632c-11.046 0-20-8.954-20-20s8.954-20 20-20h167c11.046 0 20 8.954 20 20s-8.954 20-20 20zM800 621H633c-11.046 0-20-8.954-20-20s8.954-20 20-20h167c11.046 0 20 8.954 20 20s-8.954 20-20 20z" fill="#7c60e0" p-id="23631"></path></svg>