<?xml version="1.0" standalone="no"?><!DOCTYPE svg PUBLIC "-//W3C//DTD SVG 1.1//EN" "http://www.w3.org/Graphics/SVG/1.1/DTD/svg11.dtd"><svg t="1686571990103" class="icon" viewBox="0 0 1138 1024" version="1.1" xmlns="http://www.w3.org/2000/svg" p-id="2550" xmlns:xlink="http://www.w3.org/1999/xlink" width="222.265625" height="200"><path d="M340.727595 341.636202l0 113.575865-113.575865 0 0-113.575865 113.575865 0zM0 0l1137.575865 0 0 1024-1137.575865 0 0-1024zM454.303461 739.606034l0-455.212067-340.727595 0 0 455.212067 113.575865 0 0-170.818101 113.575865 0 0 170.818101 113.575865 0zM738.697427 739.606034l0-57.242236-113.575865 0 0-397.969831-113.575865 0 0 455.212067 227.15173 0zM1023.091393 739.606034l0-57.242236-113.575865 0 0-397.969831-113.575865 0 0 455.212067 227.15173 0z" p-id="2551" fill="#7c60e0"></path></svg>